<svg xmlns="http://www.w3.org/2000/svg" viewBox="0 0 240 48" fill="none" role="img" aria-label="Apartments Near Baku Airport">
  <rect width="240" height="48" rx="8" fill="#0d6e6e"/>
  <path fill="#fff" d="M20 34V14h4l8 14 8-14h4v20h-3.5V19.5L33 33h-2.6L23.5 19.5V34H20zm38-9.5c0-5.6 4.2-10 9.8-10 5.5 0 9.7 4.3 9.7 10s-4.2 10-9.7 10c-5.6 0-9.8-4.4-9.8-10zm16.2 0c0-3.8-2.8-6.7-6.4-6.7-3.7 0-6.5 2.9-6.5 6.7s2.8 6.7 6.5 6.7c3.6 0 6.4-2.9 6.4-6.7zm8.3 9.5V15h8.2c4.6 0 7.4 2.4 7.4 6.2 0 3.1-1.7 5.2-4.5 5.9l5.1 7h-4.3l-4.6-6.8h-3.4V34h-3.9zm7.7-9.8c2.2 0 3.5-1.1 3.5-3s-1.3-3-3.5-3h-3.8v6h3.8zm15.5 9.8V15h12.6v3.4h-8.7v4.5h7.6v3.3h-7.6v4.4h8.9V34h-12.8zm22.8 0V15h8.1c5.3 0 8.5 3.1 8.5 7.6 0 4.6-3.1 7.9-8.6 7.9h-8zm8.1-3.5c3 0 4.7-1.8 4.7-4.4 0-2.5-1.7-4.2-4.6-4.2h-4.3v8.6h4.2z"/>
  <text x="118" y="30" fill="#b8e6e6" font-family="system-ui,sans-serif" font-size="9" font-weight="600">GYD</text>
</svg>
